<mxfile host="Electron" agent="Mozilla/5.0 (Windows NT 10.0; Win64; x64) AppleWebKit/537.36 (KHTML, like Gecko) draw.io/27.0.9 Chrome/134.0.6998.205 Electron/35.4.0 Safari/537.36" version="27.0.9">
  <diagram name="Page-1" id="m5X9Ndlb4C0uwIu__Fkk">
    <mxGraphModel dx="296" dy="614" grid="1" gridSize="10" guides="1" tooltips="1" connect="1" arrows="1" fold="1" page="1" pageScale="1" pageWidth="850" pageHeight="1100" math="0" shadow="0">
      <root>
        <mxCell id="0" />
        <mxCell id="1" parent="0" />
        <mxCell id="iRyP6-jP_q9jGBDrqHdK-1" value="" style="rounded=0;whiteSpace=wrap;html=1;fillColor=none;dashed=1;strokeColor=light-dark(#ababab, #ededed);" parent="1" vertex="1">
          <mxGeometry x="41" y="142.56" width="99" height="490" as="geometry" />
        </mxCell>
        <mxCell id="iRyP6-jP_q9jGBDrqHdK-2" value="&lt;font&gt;&lt;b style=&quot;&quot;&gt;Sources&lt;/b&gt;&lt;/font&gt;" style="rounded=1;whiteSpace=wrap;html=1;dashed=1;strokeColor=light-dark(#c7c2c2, #ededed);fontSize=14;" parent="1" vertex="1">
          <mxGeometry x="54" y="112.56" width="100" height="50" as="geometry" />
        </mxCell>
        <mxCell id="iRyP6-jP_q9jGBDrqHdK-7" value="&lt;b&gt;&lt;font style=&quot;font-size: 12px;&quot;&gt;Bronze Layer&lt;/font&gt;&lt;/b&gt;" style="rounded=0;whiteSpace=wrap;html=1;fillColor=#ffe6cc;strokeColor=#d79b00;fontSize=14;" parent="1" vertex="1">
          <mxGeometry x="229" y="120" width="140" height="40" as="geometry" />
        </mxCell>
        <mxCell id="iRyP6-jP_q9jGBDrqHdK-8" value="" style="rounded=0;whiteSpace=wrap;html=1;fillColor=none;strokeColor=#d79b00;" parent="1" vertex="1">
          <mxGeometry x="229" y="160" width="140" height="390" as="geometry" />
        </mxCell>
        <mxCell id="iRyP6-jP_q9jGBDrqHdK-15" value="" style="image;aspect=fixed;html=1;points=[];align=center;fontSize=12;image=img/lib/azure2/general/Folder_Blank.svg;" parent="1" vertex="1">
          <mxGeometry x="66.5" y="212.56" width="49.29" height="40" as="geometry" />
        </mxCell>
        <mxCell id="iRyP6-jP_q9jGBDrqHdK-16" value="" style="image;aspect=fixed;html=1;points=[];align=center;fontSize=12;image=img/lib/azure2/general/File.svg;" parent="1" vertex="1">
          <mxGeometry x="103.85" y="232.56" width="24.35" height="30" as="geometry" />
        </mxCell>
        <mxCell id="iRyP6-jP_q9jGBDrqHdK-17" value="CRM" style="text;html=1;align=center;verticalAlign=middle;whiteSpace=wrap;rounded=0;fontStyle=1" parent="1" vertex="1">
          <mxGeometry x="66.69999999999999" y="262.56" width="61.5" height="29" as="geometry" />
        </mxCell>
        <mxCell id="iRyP6-jP_q9jGBDrqHdK-18" value="" style="image;aspect=fixed;html=1;points=[];align=center;fontSize=12;image=img/lib/azure2/general/Folder_Blank.svg;" parent="1" vertex="1">
          <mxGeometry x="71.5" y="372.56" width="54.5" height="44.23" as="geometry" />
        </mxCell>
        <mxCell id="iRyP6-jP_q9jGBDrqHdK-19" value="" style="image;aspect=fixed;html=1;points=[];align=center;fontSize=12;image=img/lib/azure2/general/File.svg;" parent="1" vertex="1">
          <mxGeometry x="103.03999999999999" y="390" width="25.16" height="31" as="geometry" />
        </mxCell>
        <mxCell id="iRyP6-jP_q9jGBDrqHdK-20" value="ERP" style="text;html=1;align=center;verticalAlign=middle;whiteSpace=wrap;rounded=0;fontStyle=1" parent="1" vertex="1">
          <mxGeometry x="71.5" y="421" width="60" height="30" as="geometry" />
        </mxCell>
        <mxCell id="jI-nzRKR6AHuLzBKIUge-7" value="" style="edgeStyle=orthogonalEdgeStyle;rounded=0;orthogonalLoop=1;jettySize=auto;html=1;" parent="1" edge="1">
          <mxGeometry relative="1" as="geometry">
            <mxPoint x="510" y="236.12" as="targetPoint" />
          </mxGeometry>
        </mxCell>
        <mxCell id="iRyP6-jP_q9jGBDrqHdK-52" value="&lt;font style=&quot;font-size: 15px;&quot;&gt;&lt;b&gt;Data Flow Diagram(Silver Layer)&lt;/b&gt;&lt;/font&gt;" style="text;html=1;align=center;verticalAlign=middle;whiteSpace=wrap;rounded=0;" parent="1" vertex="1">
          <mxGeometry x="36.85" y="20" width="243.15" height="30" as="geometry" />
        </mxCell>
        <mxCell id="jI-nzRKR6AHuLzBKIUge-1" style="edgeStyle=orthogonalEdgeStyle;rounded=0;orthogonalLoop=1;jettySize=auto;html=1;exitX=0.5;exitY=1;exitDx=0;exitDy=0;" parent="1" source="iRyP6-jP_q9jGBDrqHdK-1" target="iRyP6-jP_q9jGBDrqHdK-1" edge="1">
          <mxGeometry relative="1" as="geometry" />
        </mxCell>
        <mxCell id="jI-nzRKR6AHuLzBKIUge-4" style="edgeStyle=orthogonalEdgeStyle;rounded=0;orthogonalLoop=1;jettySize=auto;html=1;exitX=0.5;exitY=1;exitDx=0;exitDy=0;" parent="1" source="iRyP6-jP_q9jGBDrqHdK-1" target="iRyP6-jP_q9jGBDrqHdK-1" edge="1">
          <mxGeometry relative="1" as="geometry" />
        </mxCell>
        <mxCell id="jI-nzRKR6AHuLzBKIUge-8" value="crm_cust_info" style="rounded=1;whiteSpace=wrap;html=1;" parent="1" vertex="1">
          <mxGeometry x="239" y="189" width="120" height="27" as="geometry" />
        </mxCell>
        <mxCell id="jI-nzRKR6AHuLzBKIUge-9" value="crm_prd_info" style="rounded=1;whiteSpace=wrap;html=1;" parent="1" vertex="1">
          <mxGeometry x="239" y="228.56" width="120" height="27" as="geometry" />
        </mxCell>
        <mxCell id="jI-nzRKR6AHuLzBKIUge-10" value="crm_sales_details" style="rounded=1;whiteSpace=wrap;html=1;" parent="1" vertex="1">
          <mxGeometry x="239" y="267" width="120" height="27" as="geometry" />
        </mxCell>
        <mxCell id="jI-nzRKR6AHuLzBKIUge-11" value="" style="endArrow=classic;html=1;rounded=0;exitX=0.836;exitY=0.488;exitDx=0;exitDy=0;exitPerimeter=0;entryX=0;entryY=0.5;entryDx=0;entryDy=0;" parent="1" target="jI-nzRKR6AHuLzBKIUge-9" edge="1">
          <mxGeometry width="50" height="50" relative="1" as="geometry">
            <mxPoint x="240.49659999999997" y="240.69999999999993" as="sourcePoint" />
            <mxPoint x="457.29" y="200" as="targetPoint" />
            <Array as="points">
              <mxPoint x="140" y="242" />
            </Array>
          </mxGeometry>
        </mxCell>
        <mxCell id="jI-nzRKR6AHuLzBKIUge-12" value="" style="endArrow=classic;html=1;rounded=0;" parent="1" edge="1">
          <mxGeometry width="50" height="50" relative="1" as="geometry">
            <mxPoint x="190" y="200" as="sourcePoint" />
            <mxPoint x="239" y="201" as="targetPoint" />
          </mxGeometry>
        </mxCell>
        <mxCell id="jI-nzRKR6AHuLzBKIUge-13" value="" style="endArrow=classic;html=1;rounded=0;" parent="1" edge="1">
          <mxGeometry width="50" height="50" relative="1" as="geometry">
            <mxPoint x="190" y="280" as="sourcePoint" />
            <mxPoint x="239" y="280" as="targetPoint" />
          </mxGeometry>
        </mxCell>
        <mxCell id="jI-nzRKR6AHuLzBKIUge-14" value="" style="endArrow=none;html=1;rounded=0;" parent="1" edge="1">
          <mxGeometry width="50" height="50" relative="1" as="geometry">
            <mxPoint x="190" y="282.06" as="sourcePoint" />
            <mxPoint x="190" y="200" as="targetPoint" />
          </mxGeometry>
        </mxCell>
        <mxCell id="jI-nzRKR6AHuLzBKIUge-15" value="erp_loc_a101" style="rounded=1;whiteSpace=wrap;html=1;" parent="1" vertex="1">
          <mxGeometry x="239" y="356" width="120" height="27" as="geometry" />
        </mxCell>
        <mxCell id="jI-nzRKR6AHuLzBKIUge-16" value="erp_cust_az12" style="rounded=1;whiteSpace=wrap;html=1;" parent="1" vertex="1">
          <mxGeometry x="239" y="395.56" width="120" height="27" as="geometry" />
        </mxCell>
        <mxCell id="jI-nzRKR6AHuLzBKIUge-17" value="erp_px_cat_g1v2" style="rounded=1;whiteSpace=wrap;html=1;" parent="1" vertex="1">
          <mxGeometry x="239" y="437" width="120" height="27" as="geometry" />
        </mxCell>
        <mxCell id="jI-nzRKR6AHuLzBKIUge-18" value="" style="endArrow=classic;html=1;rounded=0;entryX=0;entryY=0.5;entryDx=0;entryDy=0;" parent="1" edge="1">
          <mxGeometry width="50" height="50" relative="1" as="geometry">
            <mxPoint x="190" y="369" as="sourcePoint" />
            <mxPoint x="239" y="368.5" as="targetPoint" />
          </mxGeometry>
        </mxCell>
        <mxCell id="jI-nzRKR6AHuLzBKIUge-19" value="" style="endArrow=classic;html=1;rounded=0;" parent="1" edge="1">
          <mxGeometry width="50" height="50" relative="1" as="geometry">
            <mxPoint x="190" y="447" as="sourcePoint" />
            <mxPoint x="239" y="447" as="targetPoint" />
          </mxGeometry>
        </mxCell>
        <mxCell id="jI-nzRKR6AHuLzBKIUge-20" value="" style="endArrow=none;html=1;rounded=0;" parent="1" edge="1">
          <mxGeometry width="50" height="50" relative="1" as="geometry">
            <mxPoint x="190" y="449.06" as="sourcePoint" />
            <mxPoint x="190" y="369.06" as="targetPoint" />
          </mxGeometry>
        </mxCell>
        <mxCell id="jI-nzRKR6AHuLzBKIUge-21" value="" style="endArrow=classic;html=1;rounded=0;entryX=0;entryY=0.5;entryDx=0;entryDy=0;" parent="1" edge="1">
          <mxGeometry width="50" height="50" relative="1" as="geometry">
            <mxPoint x="139" y="407" as="sourcePoint" />
            <mxPoint x="239" y="407.05999999999995" as="targetPoint" />
            <Array as="points" />
          </mxGeometry>
        </mxCell>
        <mxCell id="_Th8I7ViiSdxIJyxwdkL-1" value="&lt;b&gt;&lt;font style=&quot;font-size: 12px;&quot;&gt;Silver Layer&lt;/font&gt;&lt;/b&gt;" style="rounded=0;whiteSpace=wrap;html=1;fontSize=14;fillColor=#f5f5f5;strokeColor=#666666;gradientColor=#b3b3b3;" parent="1" vertex="1">
          <mxGeometry x="459" y="120" width="140" height="40" as="geometry" />
        </mxCell>
        <mxCell id="_Th8I7ViiSdxIJyxwdkL-2" value="" style="rounded=0;whiteSpace=wrap;html=1;fillColor=none;strokeColor=#666666;gradientColor=#b3b3b3;" parent="1" vertex="1">
          <mxGeometry x="459" y="160" width="140" height="390" as="geometry" />
        </mxCell>
        <mxCell id="_Th8I7ViiSdxIJyxwdkL-3" value="crm_cust_info" style="rounded=1;whiteSpace=wrap;html=1;fillColor=#f5f5f5;strokeColor=#666666;gradientColor=#b3b3b3;" parent="1" vertex="1">
          <mxGeometry x="469" y="189" width="120" height="27" as="geometry" />
        </mxCell>
        <mxCell id="_Th8I7ViiSdxIJyxwdkL-4" value="crm_prd_info" style="rounded=1;whiteSpace=wrap;html=1;fillColor=#f5f5f5;strokeColor=#666666;gradientColor=#b3b3b3;" parent="1" vertex="1">
          <mxGeometry x="469" y="228.56" width="120" height="27" as="geometry" />
        </mxCell>
        <mxCell id="_Th8I7ViiSdxIJyxwdkL-5" value="crm_sales_details" style="rounded=1;whiteSpace=wrap;html=1;fillColor=#f5f5f5;strokeColor=#666666;gradientColor=#b3b3b3;" parent="1" vertex="1">
          <mxGeometry x="469" y="267" width="120" height="27" as="geometry" />
        </mxCell>
        <mxCell id="_Th8I7ViiSdxIJyxwdkL-6" value="erp_loc_a101" style="rounded=1;whiteSpace=wrap;html=1;fillColor=#f5f5f5;strokeColor=#666666;gradientColor=#b3b3b3;" parent="1" vertex="1">
          <mxGeometry x="469" y="356" width="120" height="27" as="geometry" />
        </mxCell>
        <mxCell id="_Th8I7ViiSdxIJyxwdkL-7" value="erp_cust_az12" style="rounded=1;whiteSpace=wrap;html=1;fillColor=#f5f5f5;strokeColor=#666666;gradientColor=#b3b3b3;" parent="1" vertex="1">
          <mxGeometry x="469" y="395.56" width="120" height="27" as="geometry" />
        </mxCell>
        <mxCell id="_Th8I7ViiSdxIJyxwdkL-8" value="erp_px_cat_g1v2" style="rounded=1;whiteSpace=wrap;html=1;fillColor=#f5f5f5;strokeColor=#666666;gradientColor=#b3b3b3;" parent="1" vertex="1">
          <mxGeometry x="469" y="437" width="120" height="27" as="geometry" />
        </mxCell>
        <mxCell id="_Th8I7ViiSdxIJyxwdkL-9" value="" style="endArrow=classic;html=1;rounded=0;entryX=0;entryY=0.5;entryDx=0;entryDy=0;exitX=1;exitY=0.5;exitDx=0;exitDy=0;" parent="1" source="jI-nzRKR6AHuLzBKIUge-8" target="_Th8I7ViiSdxIJyxwdkL-3" edge="1">
          <mxGeometry width="50" height="50" relative="1" as="geometry">
            <mxPoint x="359" y="216" as="sourcePoint" />
            <mxPoint x="409" y="166" as="targetPoint" />
          </mxGeometry>
        </mxCell>
        <mxCell id="_Th8I7ViiSdxIJyxwdkL-10" value="" style="endArrow=classic;html=1;rounded=0;entryX=0;entryY=0.5;entryDx=0;entryDy=0;exitX=1;exitY=0.5;exitDx=0;exitDy=0;" parent="1" edge="1">
          <mxGeometry width="50" height="50" relative="1" as="geometry">
            <mxPoint x="359" y="241.56" as="sourcePoint" />
            <mxPoint x="469" y="241.56" as="targetPoint" />
          </mxGeometry>
        </mxCell>
        <mxCell id="_Th8I7ViiSdxIJyxwdkL-11" value="" style="endArrow=classic;html=1;rounded=0;entryX=0;entryY=0.5;entryDx=0;entryDy=0;exitX=1;exitY=0.5;exitDx=0;exitDy=0;" parent="1" edge="1">
          <mxGeometry width="50" height="50" relative="1" as="geometry">
            <mxPoint x="359" y="280" as="sourcePoint" />
            <mxPoint x="469" y="280" as="targetPoint" />
          </mxGeometry>
        </mxCell>
        <mxCell id="_Th8I7ViiSdxIJyxwdkL-12" value="" style="endArrow=classic;html=1;rounded=0;entryX=0;entryY=0.5;entryDx=0;entryDy=0;exitX=1;exitY=0.5;exitDx=0;exitDy=0;" parent="1" edge="1">
          <mxGeometry width="50" height="50" relative="1" as="geometry">
            <mxPoint x="359" y="369" as="sourcePoint" />
            <mxPoint x="469" y="369" as="targetPoint" />
          </mxGeometry>
        </mxCell>
        <mxCell id="_Th8I7ViiSdxIJyxwdkL-13" value="" style="endArrow=classic;html=1;rounded=0;entryX=0;entryY=0.5;entryDx=0;entryDy=0;exitX=1;exitY=0.5;exitDx=0;exitDy=0;" parent="1" edge="1">
          <mxGeometry width="50" height="50" relative="1" as="geometry">
            <mxPoint x="359" y="408.56" as="sourcePoint" />
            <mxPoint x="469" y="408.56" as="targetPoint" />
          </mxGeometry>
        </mxCell>
        <mxCell id="_Th8I7ViiSdxIJyxwdkL-14" value="" style="endArrow=classic;html=1;rounded=0;entryX=0;entryY=0.5;entryDx=0;entryDy=0;exitX=1;exitY=0.5;exitDx=0;exitDy=0;" parent="1" edge="1">
          <mxGeometry width="50" height="50" relative="1" as="geometry">
            <mxPoint x="359" y="450" as="sourcePoint" />
            <mxPoint x="469" y="450" as="targetPoint" />
          </mxGeometry>
        </mxCell>
        <mxCell id="W-5gZfo6hY1iPz0Kehmi-2" value="&lt;b&gt;&lt;font style=&quot;font-size: 12px;&quot;&gt;Gold Layer&lt;/font&gt;&lt;/b&gt;" style="rounded=0;whiteSpace=wrap;html=1;fontSize=14;fillColor=#e3c800;strokeColor=#B09500;fontColor=#000000;" vertex="1" parent="1">
          <mxGeometry x="720" y="121" width="140" height="40" as="geometry" />
        </mxCell>
        <mxCell id="W-5gZfo6hY1iPz0Kehmi-3" value="" style="rounded=0;whiteSpace=wrap;html=1;fillColor=none;strokeColor=#666666;gradientColor=#b3b3b3;" vertex="1" parent="1">
          <mxGeometry x="720" y="161" width="140" height="390" as="geometry" />
        </mxCell>
        <mxCell id="W-5gZfo6hY1iPz0Kehmi-4" value="fact_sales" style="rounded=1;whiteSpace=wrap;html=1;fillColor=#e3c800;strokeColor=#B09500;fontColor=#000000;" vertex="1" parent="1">
          <mxGeometry x="730" y="190" width="120" height="27" as="geometry" />
        </mxCell>
        <mxCell id="W-5gZfo6hY1iPz0Kehmi-5" value="dim_customers" style="rounded=1;whiteSpace=wrap;html=1;fillColor=#e3c800;strokeColor=#B09500;fontColor=#000000;" vertex="1" parent="1">
          <mxGeometry x="730" y="229.56" width="120" height="27" as="geometry" />
        </mxCell>
        <mxCell id="W-5gZfo6hY1iPz0Kehmi-6" value="dim_products" style="rounded=1;whiteSpace=wrap;html=1;fillColor=#e3c800;strokeColor=#B09500;fontColor=#000000;" vertex="1" parent="1">
          <mxGeometry x="730" y="268" width="120" height="27" as="geometry" />
        </mxCell>
        <mxCell id="W-5gZfo6hY1iPz0Kehmi-10" value="" style="endArrow=classic;html=1;rounded=0;entryX=0;entryY=0.75;entryDx=0;entryDy=0;exitX=1;exitY=0.5;exitDx=0;exitDy=0;jumpStyle=gap;" edge="1" parent="1" source="_Th8I7ViiSdxIJyxwdkL-5" target="W-5gZfo6hY1iPz0Kehmi-4">
          <mxGeometry width="50" height="50" relative="1" as="geometry">
            <mxPoint x="560" y="270" as="sourcePoint" />
            <mxPoint x="610" y="220" as="targetPoint" />
          </mxGeometry>
        </mxCell>
        <mxCell id="W-5gZfo6hY1iPz0Kehmi-11" value="" style="endArrow=classic;html=1;rounded=0;entryX=0;entryY=0.5;entryDx=0;entryDy=0;exitX=1;exitY=0.5;exitDx=0;exitDy=0;jumpStyle=gap;" edge="1" parent="1" source="_Th8I7ViiSdxIJyxwdkL-3" target="W-5gZfo6hY1iPz0Kehmi-5">
          <mxGeometry width="50" height="50" relative="1" as="geometry">
            <mxPoint x="620" y="270" as="sourcePoint" />
            <mxPoint x="670" y="220" as="targetPoint" />
          </mxGeometry>
        </mxCell>
        <mxCell id="W-5gZfo6hY1iPz0Kehmi-12" value="" style="endArrow=classic;html=1;rounded=0;entryX=0;entryY=0.5;entryDx=0;entryDy=0;exitX=1;exitY=0.5;exitDx=0;exitDy=0;jumpStyle=gap;" edge="1" parent="1" source="_Th8I7ViiSdxIJyxwdkL-4" target="W-5gZfo6hY1iPz0Kehmi-6">
          <mxGeometry width="50" height="50" relative="1" as="geometry">
            <mxPoint x="630" y="350" as="sourcePoint" />
            <mxPoint x="680" y="300" as="targetPoint" />
          </mxGeometry>
        </mxCell>
        <mxCell id="W-5gZfo6hY1iPz0Kehmi-13" value="" style="endArrow=classic;html=1;rounded=0;exitX=1;exitY=0.5;exitDx=0;exitDy=0;entryX=0;entryY=0.5;entryDx=0;entryDy=0;jumpStyle=gap;" edge="1" parent="1" source="_Th8I7ViiSdxIJyxwdkL-7" target="W-5gZfo6hY1iPz0Kehmi-5">
          <mxGeometry width="50" height="50" relative="1" as="geometry">
            <mxPoint x="630" y="360" as="sourcePoint" />
            <mxPoint x="730" y="240" as="targetPoint" />
          </mxGeometry>
        </mxCell>
        <mxCell id="W-5gZfo6hY1iPz0Kehmi-14" value="" style="endArrow=classic;html=1;rounded=0;exitX=1;exitY=0.5;exitDx=0;exitDy=0;entryX=0.034;entryY=0.225;entryDx=0;entryDy=0;entryPerimeter=0;jumpStyle=gap;" edge="1" parent="1" source="_Th8I7ViiSdxIJyxwdkL-6" target="W-5gZfo6hY1iPz0Kehmi-3">
          <mxGeometry width="50" height="50" relative="1" as="geometry">
            <mxPoint x="620" y="270" as="sourcePoint" />
            <mxPoint x="670" y="220" as="targetPoint" />
          </mxGeometry>
        </mxCell>
        <mxCell id="W-5gZfo6hY1iPz0Kehmi-15" value="" style="endArrow=classic;html=1;rounded=0;exitX=1;exitY=0.5;exitDx=0;exitDy=0;entryX=0;entryY=0.5;entryDx=0;entryDy=0;jumpStyle=gap;" edge="1" parent="1" source="_Th8I7ViiSdxIJyxwdkL-8" target="W-5gZfo6hY1iPz0Kehmi-6">
          <mxGeometry width="50" height="50" relative="1" as="geometry">
            <mxPoint x="620" y="270" as="sourcePoint" />
            <mxPoint x="670" y="220" as="targetPoint" />
          </mxGeometry>
        </mxCell>
      </root>
    </mxGraphModel>
  </diagram>
</mxfile>
